<?xml version="1.0" encoding="utf-8"?>
<!-- Generator: Adobe Illustrator 24.2.0, SVG Export Plug-In . SVG Version: 6.00 Build 0)  -->
<svg version="1.1" id="Warstwa_1" xmlns="http://www.w3.org/2000/svg" xmlns:xlink="http://www.w3.org/1999/xlink" x="0px" y="0px"
	 viewBox="0 0 5881 3028" style="enable-background:new 0 0 5881 3028;" xml:space="preserve">
<style type="text/css">
	.st0{fill:url(#SVGID_1_);}
	.st1{fill:url(#SVGID_2_);}
	.st2{fill:url(#SVGID_3_);}
	.st3{fill:url(#SVGID_4_);}
	.st4{fill:url(#SVGID_5_);}
	.st5{fill:url(#SVGID_6_);}
	.st6{fill:url(#SVGID_7_);}
	.st7{fill:url(#SVGID_8_);}
	.st8{fill:url(#SVGID_9_);}
	.st9{fill:url(#SVGID_10_);}
	.st10{fill:url(#SVGID_11_);}
	.st11{fill:url(#SVGID_12_);}
	.st12{fill:url(#SVGID_13_);}
	.st13{fill:url(#SVGID_14_);}
	.st14{fill:url(#SVGID_15_);}
	.st15{fill:url(#SVGID_16_);}
	.st16{fill:url(#SVGID_17_);}
	.st17{fill:url(#SVGID_18_);}
	.st18{fill:url(#SVGID_19_);}
	.st19{fill:url(#SVGID_20_);}
	.st20{fill:url(#SVGID_21_);}
	.st21{fill:url(#SVGID_22_);}
	.st22{fill:url(#SVGID_23_);}
	.st23{fill:url(#SVGID_24_);}
	.st24{fill:url(#SVGID_25_);}
	.st25{fill:url(#SVGID_26_);}
	.st26{fill:url(#SVGID_27_);}
</style>
<g>
	<linearGradient id="SVGID_1_" gradientUnits="userSpaceOnUse" x1="3336.3899" y1="1675.214" x2="3336.3899" y2="1675.214">
		<stop  offset="0" style="stop-color:#00FFC9"/>
		<stop  offset="0.6058" style="stop-color:#00ABE9"/>
		<stop  offset="0.8633" style="stop-color:#FF55D5"/>
		<stop  offset="1" style="stop-color:#FF3F7F"/>
	</linearGradient>
	<path class="st0" d="M3336.4,1675.2"/>
	<linearGradient id="SVGID_2_" gradientUnits="userSpaceOnUse" x1="3887.781" y1="1684.3317" x2="2129.1426" y2="1678.204">
		<stop  offset="0" style="stop-color:#00FFC9"/>
		<stop  offset="0.6058" style="stop-color:#00ABE9"/>
		<stop  offset="0.8633" style="stop-color:#FF55D5"/>
		<stop  offset="1" style="stop-color:#FF3F7F"/>
	</linearGradient>
	<path class="st1" d="M2134.7,1672.4v11.4c0,9.6-7.9,17.5-17.6,17.5h0c-9.7,0-17.6-7.8-17.6-17.5v-11.4c0-9.6,7.9-17.5,17.6-17.5h0
		C2126.8,1655,2134.7,1662.8,2134.7,1672.4z"/>
	<linearGradient id="SVGID_3_" gradientUnits="userSpaceOnUse" x1="3887.7947" y1="1680.4011" x2="2129.1563" y2="1674.2734">
		<stop  offset="0" style="stop-color:#00FFC9"/>
		<stop  offset="0.6058" style="stop-color:#00ABE9"/>
		<stop  offset="0.8633" style="stop-color:#FF55D5"/>
		<stop  offset="1" style="stop-color:#FF3F7F"/>
	</linearGradient>
	<path class="st2" d="M3262.8,1602.9v150.5c0,9.6-7.9,17.5-17.6,17.5h0c-9.7,0-17.6-7.8-17.6-17.5v-150.5c0-9.6,7.9-17.5,17.6-17.5
		h0C3254.9,1585.5,3262.8,1593.3,3262.8,1602.9z"/>
	<linearGradient id="SVGID_4_" gradientUnits="userSpaceOnUse" x1="3887.7954" y1="1680.1554" x2="2129.1572" y2="1674.0278">
		<stop  offset="0" style="stop-color:#00FFC9"/>
		<stop  offset="0.6058" style="stop-color:#00ABE9"/>
		<stop  offset="0.8633" style="stop-color:#FF55D5"/>
		<stop  offset="1" style="stop-color:#FF3F7F"/>
	</linearGradient>
	<path class="st3" d="M3333.3,1672.4v11.4c0,9.6-7.9,17.5-17.6,17.5l0,0c-9.7,0-17.6-7.8-17.6-17.5v-11.4c0-9.6,7.9-17.5,17.6-17.5
		l0,0C3325.4,1655,3333.3,1662.8,3333.3,1672.4z"/>
	<linearGradient id="SVGID_5_" gradientUnits="userSpaceOnUse" x1="3887.7937" y1="1680.6499" x2="2129.1555" y2="1674.5222">
		<stop  offset="0" style="stop-color:#00FFC9"/>
		<stop  offset="0.6058" style="stop-color:#00ABE9"/>
		<stop  offset="0.8633" style="stop-color:#FF55D5"/>
		<stop  offset="1" style="stop-color:#FF3F7F"/>
	</linearGradient>
	<path class="st4" d="M3187.1,1428.3c3.2,3.2,5.2,7.5,5.2,12.3v475c0,9.6-7.9,17.5-17.6,17.5c-4.9,0-9.3-2-12.5-5.1
		c-3.2-3.2-5.2-7.5-5.2-12.4v-475c0-9.6,7.9-17.5,17.6-17.5C3179.5,1423.2,3183.9,1425.2,3187.1,1428.3z"/>
	<linearGradient id="SVGID_6_" gradientUnits="userSpaceOnUse" x1="3887.7861" y1="1682.8558" x2="2129.1477" y2="1676.7281">
		<stop  offset="0" style="stop-color:#00FFC9"/>
		<stop  offset="0.6058" style="stop-color:#00ABE9"/>
		<stop  offset="0.8633" style="stop-color:#FF55D5"/>
		<stop  offset="1" style="stop-color:#FF3F7F"/>
	</linearGradient>
	<path class="st5" d="M2557.7,1556.6v243.2c0,9.6-7.9,17.5-17.6,17.5h0c-9.7,0-17.6-7.8-17.6-17.5v-243.2c0-9.6,7.9-17.5,17.6-17.5
		h0C2549.8,1539.1,2557.7,1546.9,2557.7,1556.6z"/>
	<linearGradient id="SVGID_7_" gradientUnits="userSpaceOnUse" x1="3887.6787" y1="1713.6602" x2="2129.0405" y2="1707.5325">
		<stop  offset="0" style="stop-color:#00FFC9"/>
		<stop  offset="0.6058" style="stop-color:#00ABE9"/>
		<stop  offset="0.8633" style="stop-color:#FF55D5"/>
		<stop  offset="1" style="stop-color:#FF3F7F"/>
	</linearGradient>
	<path class="st6" d="M3116.6,1308.5c3.2,3.2,5.2,7.5,5.2,12.3v780.3c0,9.6-7.9,17.5-17.6,17.5c-4.9,0-9.3-2-12.5-5.1
		c-3.2-3.2-5.2-7.5-5.2-12.3v-780.3c0-9.6,7.9-17.5,17.6-17.5C3109,1303.3,3113.4,1305.3,3116.6,1308.5z"/>
	<linearGradient id="SVGID_8_" gradientUnits="userSpaceOnUse" x1="3887.7852" y1="1683.1014" x2="2129.147" y2="1676.9739">
		<stop  offset="0" style="stop-color:#00FFC9"/>
		<stop  offset="0.6058" style="stop-color:#00ABE9"/>
		<stop  offset="0.8633" style="stop-color:#FF55D5"/>
		<stop  offset="1" style="stop-color:#FF3F7F"/>
	</linearGradient>
	<path class="st7" d="M2482,1405.2c3.2,3.2,5.2,7.5,5.2,12.3v521.3c0,9.6-7.9,17.5-17.6,17.5c-4.9,0-9.3-2-12.5-5.1
		c-3.2-3.2-5.2-7.5-5.2-12.3v-521.3c0-9.6,7.9-17.5,17.6-17.5C2474.4,1400,2478.9,1402,2482,1405.2z"/>
	<linearGradient id="SVGID_9_" gradientUnits="userSpaceOnUse" x1="3887.7817" y1="1684.0841" x2="2129.1436" y2="1677.9565">
		<stop  offset="0" style="stop-color:#00FFC9"/>
		<stop  offset="0.6058" style="stop-color:#00ABE9"/>
		<stop  offset="0.8633" style="stop-color:#FF55D5"/>
		<stop  offset="1" style="stop-color:#FF3F7F"/>
	</linearGradient>
	<path class="st8" d="M2200,1544.2c3.2,3.2,5.2,7.5,5.2,12.3v243.2c0,9.6-7.9,17.5-17.6,17.5c-4.9,0-9.3-1.9-12.5-5.1
		c-3.2-3.2-5.2-7.5-5.2-12.3v-243.2c0-9.6,7.9-17.5,17.6-17.5C2192.4,1539.1,2196.8,1541.1,2200,1544.2z"/>
	<linearGradient id="SVGID_10_" gradientUnits="userSpaceOnUse" x1="3887.7869" y1="1682.6152" x2="2129.1487" y2="1676.4875">
		<stop  offset="0" style="stop-color:#00FFC9"/>
		<stop  offset="0.6058" style="stop-color:#00ABE9"/>
		<stop  offset="0.8633" style="stop-color:#FF55D5"/>
		<stop  offset="1" style="stop-color:#FF3F7F"/>
	</linearGradient>
	<path class="st9" d="M2623,1428.3c3.2,3.2,5.2,7.5,5.2,12.3v475c0,9.6-7.9,17.5-17.6,17.5c-4.9,0-9.3-2-12.5-5.1
		c-3.2-3.2-5.2-7.5-5.2-12.4v-475c0-9.6,7.9-17.5,17.6-17.5C2615.4,1423.2,2619.9,1425.2,2623,1428.3z"/>
	<linearGradient id="SVGID_11_" gradientUnits="userSpaceOnUse" x1="3887.7886" y1="1682.1189" x2="2129.1504" y2="1675.9912">
		<stop  offset="0" style="stop-color:#00FFC9"/>
		<stop  offset="0.6058" style="stop-color:#00ABE9"/>
		<stop  offset="0.8633" style="stop-color:#FF55D5"/>
		<stop  offset="1" style="stop-color:#FF3F7F"/>
	</linearGradient>
	<path class="st10" d="M2769.2,1511.5v333.3c0,9.6-7.9,17.5-17.6,17.5h0c-9.7,0-17.6-7.8-17.6-17.5v-333.3c0-9.6,7.9-17.5,17.6-17.5
		h0C2761.3,1494,2769.2,1501.8,2769.2,1511.5z"/>
	<linearGradient id="SVGID_12_" gradientUnits="userSpaceOnUse" x1="3887.7964" y1="1679.9128" x2="2129.158" y2="1673.7852">
		<stop  offset="0" style="stop-color:#00FFC9"/>
		<stop  offset="0.6058" style="stop-color:#00ABE9"/>
		<stop  offset="0.8633" style="stop-color:#FF55D5"/>
		<stop  offset="1" style="stop-color:#FF3F7F"/>
	</linearGradient>
	<path class="st11" d="M3403.8,1440.7v475c0,9.6-7.9,17.5-17.6,17.5c-4.9,0-9.3-2-12.5-5.1c-3.2-3.2-5.2-7.5-5.2-12.4v-475
		c0-9.6,7.9-17.5,17.6-17.5c4.9,0,9.3,1.9,12.5,5.1C3401.8,1431.5,3403.8,1435.9,3403.8,1440.7z"/>
	<linearGradient id="SVGID_13_" gradientUnits="userSpaceOnUse" x1="3887.792" y1="1681.1362" x2="2129.1538" y2="1675.0085">
		<stop  offset="0" style="stop-color:#00FFC9"/>
		<stop  offset="0.6058" style="stop-color:#00ABE9"/>
		<stop  offset="0.8633" style="stop-color:#FF55D5"/>
		<stop  offset="1" style="stop-color:#FF3F7F"/>
	</linearGradient>
	<path class="st12" d="M3051.3,1185.7v984.9c0,9.7-7.9,17.5-17.6,17.5h0c-9.7,0-17.6-7.8-17.6-17.5v-984.9c0-9.6,7.9-17.5,17.6-17.5
		h0C3043.4,1168.3,3051.3,1176.1,3051.3,1185.7z"/>
	<linearGradient id="SVGID_14_" gradientUnits="userSpaceOnUse" x1="3887.7844" y1="1683.3472" x2="2129.146" y2="1677.2195">
		<stop  offset="0" style="stop-color:#00FFC9"/>
		<stop  offset="0.6058" style="stop-color:#00ABE9"/>
		<stop  offset="0.8633" style="stop-color:#FF55D5"/>
		<stop  offset="1" style="stop-color:#FF3F7F"/>
	</linearGradient>
	<path class="st13" d="M2411.5,1613.7c3.2,3.2,5.2,7.5,5.2,12.3v104.1c0,9.7-7.9,17.5-17.6,17.5c-4.9,0-9.3-1.9-12.5-5.1
		s-5.2-7.5-5.2-12.3v-104.1c0-9.6,7.9-17.5,17.6-17.5C2403.9,1608.6,2408.3,1610.6,2411.5,1613.7z"/>
	<linearGradient id="SVGID_15_" gradientUnits="userSpaceOnUse" x1="3887.7903" y1="1681.6326" x2="2129.1521" y2="1675.5049">
		<stop  offset="0" style="stop-color:#00FFC9"/>
		<stop  offset="0.6058" style="stop-color:#00ABE9"/>
		<stop  offset="0.8633" style="stop-color:#FF55D5"/>
		<stop  offset="1" style="stop-color:#FF3F7F"/>
	</linearGradient>
	<path class="st14" d="M2905.1,1567.4c3.2,3.2,5.2,7.5,5.2,12.3v196.8c0,9.6-7.9,17.5-17.6,17.5c-4.9,0-9.3-2-12.5-5.1
		c-3.2-3.2-5.2-7.5-5.2-12.3v-196.8c0-9.7,7.9-17.5,17.6-17.5C2897.5,1562.3,2901.9,1564.2,2905.1,1567.4z"/>
	<linearGradient id="SVGID_16_" gradientUnits="userSpaceOnUse" x1="3887.7896" y1="1681.8732" x2="2129.1511" y2="1675.7455">
		<stop  offset="0" style="stop-color:#00FFC9"/>
		<stop  offset="0.6058" style="stop-color:#00ABE9"/>
		<stop  offset="0.8633" style="stop-color:#FF55D5"/>
		<stop  offset="1" style="stop-color:#FF3F7F"/>
	</linearGradient>
	<path class="st15" d="M2839.7,1602.9v150.5c0,9.6-7.9,17.5-17.6,17.5h0c-9.7,0-17.6-7.8-17.6-17.5v-150.5c0-9.6,7.9-17.5,17.6-17.5
		h0C2831.9,1585.4,2839.7,1593.3,2839.7,1602.9z"/>
	<linearGradient id="SVGID_17_" gradientUnits="userSpaceOnUse" x1="3887.9683" y1="1630.6091" x2="2129.3298" y2="1624.4814">
		<stop  offset="0" style="stop-color:#00FFC9"/>
		<stop  offset="0.6058" style="stop-color:#00ABE9"/>
		<stop  offset="0.8633" style="stop-color:#FF55D5"/>
		<stop  offset="1" style="stop-color:#FF3F7F"/>
	</linearGradient>
	<path class="st16" d="M2275.7,1001.4v1247.1c0,7.4-7.9,13.4-17.6,13.4c-4.9,0-9.3-1.5-12.5-3.9c-3.2-2.4-5.2-5.8-5.2-9.5V1001.4
		c0-7.4,7.9-13.4,17.6-13.4c4.9,0,9.3,1.5,12.5,3.9C2273.7,994.3,2275.7,997.7,2275.7,1001.4z"/>
	<linearGradient id="SVGID_18_" gradientUnits="userSpaceOnUse" x1="3887.7913" y1="1681.3868" x2="2129.1528" y2="1675.2592">
		<stop  offset="0" style="stop-color:#00FFC9"/>
		<stop  offset="0.6058" style="stop-color:#00ABE9"/>
		<stop  offset="0.8633" style="stop-color:#FF55D5"/>
		<stop  offset="1" style="stop-color:#FF3F7F"/>
	</linearGradient>
	<path class="st17" d="M2975.6,1289.3c3.2,3.2,5.2,7.5,5.2,12.3v753.1c0,9.6-7.9,17.5-17.6,17.5c-4.9,0-9.3-1.9-12.5-5.1
		c-3.2-3.2-5.2-7.5-5.2-12.4v-753.1c0-9.7,7.9-17.5,17.6-17.5C2968,1284.2,2972.4,1286.1,2975.6,1289.3z"/>
	<linearGradient id="SVGID_19_" gradientUnits="userSpaceOnUse" x1="3887.7834" y1="1683.5978" x2="2129.1453" y2="1677.4701">
		<stop  offset="0" style="stop-color:#00FFC9"/>
		<stop  offset="0.6058" style="stop-color:#00ABE9"/>
		<stop  offset="0.8633" style="stop-color:#FF55D5"/>
		<stop  offset="1" style="stop-color:#FF3F7F"/>
	</linearGradient>
	<path class="st18" d="M2346.2,1301.6v753.1c0,9.6-7.9,17.5-17.6,17.5h0c-9.7,0-17.6-7.8-17.6-17.5v-753.1c0-9.7,7.9-17.5,17.6-17.5
		h0C2338.3,1284.2,2346.2,1292,2346.2,1301.6z"/>
	<linearGradient id="SVGID_20_" gradientUnits="userSpaceOnUse" x1="3887.7878" y1="1682.3645" x2="2129.1494" y2="1676.2368">
		<stop  offset="0" style="stop-color:#00FFC9"/>
		<stop  offset="0.6058" style="stop-color:#00ABE9"/>
		<stop  offset="0.8633" style="stop-color:#FF55D5"/>
		<stop  offset="1" style="stop-color:#FF3F7F"/>
	</linearGradient>
	<path class="st19" d="M2693.6,1382c3.2,3.2,5.2,7.5,5.2,12.3V1962c0,9.6-7.9,17.5-17.6,17.5c-4.9,0-9.3-2-12.5-5.1
		c-3.2-3.2-5.2-7.5-5.2-12.3v-567.7c0-9.6,7.9-17.5,17.6-17.5C2686,1376.9,2690.4,1378.8,2693.6,1382z"/>
	<linearGradient id="SVGID_21_" gradientUnits="userSpaceOnUse" x1="3887.7971" y1="1679.6641" x2="2129.1589" y2="1673.5365">
		<stop  offset="0" style="stop-color:#00FFC9"/>
		<stop  offset="0.6058" style="stop-color:#00ABE9"/>
		<stop  offset="0.8633" style="stop-color:#FF55D5"/>
		<stop  offset="1" style="stop-color:#FF3F7F"/>
	</linearGradient>
	<path class="st20" d="M3474.3,1556.6v243.2c0,9.6-7.9,17.5-17.6,17.5h0c-9.7,0-17.6-7.8-17.6-17.5v-243.2c0-9.6,7.9-17.5,17.6-17.5
		h0C3466.4,1539.1,3474.3,1546.9,3474.3,1556.6z"/>
	<linearGradient id="SVGID_22_" gradientUnits="userSpaceOnUse" x1="3887.7981" y1="1679.4185" x2="2129.1597" y2="1673.2908">
		<stop  offset="0" style="stop-color:#00FFC9"/>
		<stop  offset="0.6058" style="stop-color:#00ABE9"/>
		<stop  offset="0.8633" style="stop-color:#FF55D5"/>
		<stop  offset="1" style="stop-color:#FF3F7F"/>
	</linearGradient>
	<path class="st21" d="M3544.8,1649.3v57.8c0,9.6-7.9,17.5-17.6,17.5l0,0c-9.7,0-17.6-7.8-17.6-17.5v-57.8c0-9.6,7.9-17.5,17.6-17.5
		l0,0C3536.9,1631.8,3544.8,1639.6,3544.8,1649.3z"/>
	<linearGradient id="SVGID_23_" gradientUnits="userSpaceOnUse" x1="3887.7988" y1="1679.1727" x2="2129.1606" y2="1673.0452">
		<stop  offset="0" style="stop-color:#00FFC9"/>
		<stop  offset="0.6058" style="stop-color:#00ABE9"/>
		<stop  offset="0.8633" style="stop-color:#FF55D5"/>
		<stop  offset="1" style="stop-color:#FF3F7F"/>
	</linearGradient>
	<path class="st22" d="M3615.3,1602.9v150.5c0,9.6-7.9,17.5-17.6,17.5l0,0c-9.7,0-17.6-7.8-17.6-17.5v-150.5
		c0-9.6,7.9-17.5,17.6-17.5l0,0C3607.4,1585.5,3615.3,1593.3,3615.3,1602.9z"/>
	<linearGradient id="SVGID_24_" gradientUnits="userSpaceOnUse" x1="3887.7998" y1="1678.9271" x2="2129.1614" y2="1672.7994">
		<stop  offset="0" style="stop-color:#00FFC9"/>
		<stop  offset="0.6058" style="stop-color:#00ABE9"/>
		<stop  offset="0.8633" style="stop-color:#FF55D5"/>
		<stop  offset="1" style="stop-color:#FF3F7F"/>
	</linearGradient>
	<path class="st23" d="M3685.8,1579.7v196.8c0,9.6-7.9,17.5-17.6,17.5l0,0c-9.7,0-17.6-7.8-17.6-17.5v-196.8
		c0-9.6,7.9-17.5,17.6-17.5l0,0C3677.9,1562.3,3685.8,1570.1,3685.8,1579.7z"/>
	<linearGradient id="SVGID_25_" gradientUnits="userSpaceOnUse" x1="3887.8005" y1="1678.6814" x2="2129.1624" y2="1672.5538">
		<stop  offset="0" style="stop-color:#00FFC9"/>
		<stop  offset="0.6058" style="stop-color:#00ABE9"/>
		<stop  offset="0.8633" style="stop-color:#FF55D5"/>
		<stop  offset="1" style="stop-color:#FF3F7F"/>
	</linearGradient>
	<path class="st24" d="M3756.3,1649.3v57.8c0,9.6-7.9,17.5-17.6,17.5l0,0c-9.7,0-17.6-7.8-17.6-17.5v-57.8c0-9.6,7.9-17.5,17.6-17.5
		l0,0C3748.4,1631.8,3756.3,1639.6,3756.3,1649.3z"/>
	<linearGradient id="SVGID_26_" gradientUnits="userSpaceOnUse" x1="3887.8015" y1="1678.4358" x2="2129.1633" y2="1672.3081">
		<stop  offset="0" style="stop-color:#00FFC9"/>
		<stop  offset="0.6058" style="stop-color:#00ABE9"/>
		<stop  offset="0.8633" style="stop-color:#FF55D5"/>
		<stop  offset="1" style="stop-color:#FF3F7F"/>
	</linearGradient>
	<path class="st25" d="M3826.8,1626.1v104.1c0,9.6-7.9,17.5-17.6,17.5h0c-9.7,0-17.6-7.8-17.6-17.5v-104.1c0-9.6,7.9-17.5,17.6-17.5
		h0C3818.9,1608.6,3826.8,1616.4,3826.8,1626.1z"/>
	<linearGradient id="SVGID_27_" gradientUnits="userSpaceOnUse" x1="3887.8022" y1="1678.1901" x2="2129.1641" y2="1672.0625">
		<stop  offset="0" style="stop-color:#00FFC9"/>
		<stop  offset="0.6058" style="stop-color:#00ABE9"/>
		<stop  offset="0.8633" style="stop-color:#FF55D5"/>
		<stop  offset="1" style="stop-color:#FF3F7F"/>
	</linearGradient>
	<path class="st26" d="M3897.3,1672.4v11.4c0,9.6-7.9,17.5-17.6,17.5l0,0c-9.7,0-17.6-7.8-17.6-17.5v-11.4c0-9.6,7.9-17.5,17.6-17.5
		l0,0C3889.4,1655,3897.3,1662.8,3897.3,1672.4z"/>
</g>
<g>
	<g>
		<path d="M2375.6,1198.5v209.6l187.6-271.6v258.8h80.6c0.4-18.4,15.5-33.2,34-33.2c6.9,0,13.4,2.1,18.8,5.7V756.1L2375.6,1198.5z
			 M2197.1,1202l1.7,26.6l1.9-274.1l-137-198.5v639.3h139.1L2197.1,1202z"/>
		<path d="M2779,1396.1L2779,1396.1L2779,1396.1L2779,1396.1z"/>
		<path d="M3421.4,1269V769.2h-133.4v624.5h400.2V1269H3421.4z"/>
		<path d="M3745.9,769.2v624.5h133.4V769.2H3745.9z"/>
	</g>
	<polygon points="2870.4,894.4 2870.4,1017.4 3094,1017.4 3014.4,1142.6 2870.3,1142.6 2870.3,1145.4 2870.4,1145.4 2870.4,1270.9 
		2932.9,1270.9 2853.8,1395.3 2853.4,1396.1 2789.6,1396.1 2737,1396.1 2737,769.2 3251.7,769.2 3172.2,894.4 	"/>
</g>
<g>
	<path d="M3392.8,1948.2c-9.4,9.2-20.8,13.8-34.1,13.8c-13.3,0-24.6-4.6-33.9-13.7c-9.4-9.2-14.1-20.2-14.1-33.1
		c0-12.8,4.7-23.8,14.1-33.1c9-8.9,19.8-13.4,32.6-13.7v-31.5c-21.5,0.3-39.9,7.9-55.4,23c-15.7,15.4-23.5,33.8-23.5,55.3
		c0,21.5,7.8,39.9,23.5,55.2c15.6,15.1,34.5,22.7,56.6,22.7c24.7,0,43.9-10.2,56.9-22.7L3392.8,1948.2z"/>
	<path d="M3423.3,1838v30.7h60.8l-60.8,123.3h35.5l14.9-30.8l60.8-123.2H3423.3z M3488.7,1961.2l-14,30.8h59.8v-30.8H3488.7z"/>
	<path d="M3635.9,1838l-28.8,53.4l-28.8-53.4h-35.9l48.9,87.9v66h31.6v-66l49-87.9H3635.9z"/>
	<path d="M3679.7,1838v30.7h38.9v123.3h31.9v-123.3h38.8V1838H3679.7z"/>
	<path d="M3844.7,1834.9l-72.1,157.1h34.3l10.7-23.4l12.6-27.3l14.6-32.6l14.4,32.6h-15.2l-10.7,27.3h38.4l10.7,23.4h34.4
		L3844.7,1834.9z"/>
</g>
</svg>
