<?xml version="1.0" encoding="UTF-8" standalone="no"?>
<!DOCTYPE svg PUBLIC "-//W3C//DTD SVG 1.1//EN" "http://www.w3.org/Graphics/SVG/1.1/DTD/svg11.dtd">
<svg version="1.1" xmlns="http://www.w3.org/2000/svg" xmlns:xlink="http://www.w3.org/1999/xlink" preserveAspectRatio="xMidYMid meet" viewBox="0 0 64 64" width="64" height="64"><defs><path d="M59.44 2.5C60.59 2.5 61.51 3.43 61.51 4.58C61.51 15.96 61.51 48.04 61.51 59.42C61.51 60.57 60.59 61.5 59.44 61.5C48.05 61.5 15.97 61.5 4.59 61.5C3.44 61.5 2.51 60.57 2.51 59.42C2.51 48.04 2.51 15.96 2.51 4.58C2.51 3.43 3.44 2.5 4.59 2.5C15.97 2.5 48.05 2.5 59.44 2.5Z" id="b2fN5OqSxY"></path><path d="M11.86 17.57L11.86 17.57L11.86 17.71L11.86 17.71L11.86 17.57Z" id="b1BEtA8CN"></path><path d="M46.15 55.81C35.7 57.85 26.48 57.85 18.49 55.81L18.49 61.5L18.49 56.89L17.59 55.81L17.86 54.54L17.86 48.15" id="b15x8uaJIW"></path><path d="M46.15 48.15C34.54 51.58 25.02 51.38 17.59 47.56" id="a3IGsB1zaz"></path><path d="M17.98 47.97C17.5 47.68 17.1 42.44 16.78 32.24C16.31 16.93 16.17 17.83 16.7 16.72C17.48 15.08 18.53 14.07 19.85 13.68C35.02 13.53 43.34 13.6 44.82 13.91C46.3 14.23 47.31 15.16 47.85 16.72L46.85 47.62L47.22 48.57L46.85 56.11L45.49 57.05L45.49 61.5" id="aEywC8agM"></path><path d="M38.38 26.55C38.38 26.72 38.21 26.85 38.01 26.85C37.81 26.85 37.64 26.72 37.64 26.55C37.64 26.39 37.81 26.26 38.01 26.26C38.21 26.26 38.38 26.39 38.38 26.55Z" id="f1lIfNusNO"></path><path d="M39.38 27.55C39.38 27.72 39.21 27.85 39.01 27.85C38.81 27.85 38.64 27.72 38.64 27.55C38.64 27.39 38.81 27.26 39.01 27.26C39.21 27.26 39.38 27.39 39.38 27.55Z" id="bcvHO4drL"></path><path d="M40.38 28.55C40.38 28.72 40.21 28.85 40.01 28.85C39.81 28.85 39.64 28.72 39.64 28.55C39.64 28.39 39.81 28.26 40.01 28.26C40.21 28.26 40.38 28.39 40.38 28.55Z" id="i23GjIfdX"></path><path d="M41.38 29.55C41.38 29.72 41.21 29.85 41.01 29.85C40.81 29.85 40.64 29.72 40.64 29.55C40.64 29.39 40.81 29.26 41.01 29.26C41.21 29.26 41.38 29.39 41.38 29.55Z" id="a62owZ3665"></path><path d="M42.38 30.55C42.38 30.72 42.21 30.85 42.01 30.85C41.81 30.85 41.64 30.72 41.64 30.55C41.64 30.39 41.81 30.26 42.01 30.26C42.21 30.26 42.38 30.39 42.38 30.55Z" id="k1zhVg7TCT"></path><path d="M43.38 31.55C43.38 31.72 43.21 31.85 43.01 31.85C42.81 31.85 42.64 31.72 42.64 31.55C42.64 31.39 42.81 31.26 43.01 31.26C43.21 31.26 43.38 31.39 43.38 31.55Z" id="b1BPFNC5bM"></path><path d="M44.38 32.55C44.38 32.72 44.21 32.85 44.01 32.85C43.81 32.85 43.64 32.72 43.64 32.55C43.64 32.39 43.81 32.26 44.01 32.26C44.21 32.26 44.38 32.39 44.38 32.55Z" id="a1Q1Kzkjt6"></path><path d="M15.4 52.62L15.67 53.6L15.85 54.68L16.03 55.67L16.12 56.75L15.94 57.73L15.13 58.36" id="aLax4Uq0O"></path><path d="M49.24 47.32L49.06 48.31L49.15 49.38L49.06 50.46L49.06 51.54L49.06 52.62L48.97 53.69L48.7 54.68L48.52 55.67L48.25 56.66L47.81 57.64L47.72 58.72" id="bJdwzlO1v"></path><path d="M16.36 16.85L18.23 60.87" id="au6oaijDH"></path><path d="M18.23 57.55L18.91 70.57L42.75 72.1L45.38 64.82L45.75 61.23L47.18 51.99C46.9 30.95 47.08 19.34 47.72 17.14C48.08 15.87 47.56 14.73 46.16 13.72L45.38 13.6C31.08 13.52 22.62 13.52 20.01 13.6C17.4 13.69 16.18 15.1 16.36 17.85" id="b16sSdH0YD"></path><path d="M47.27 47.46C37.27 51.14 27.38 51.24 17.59 47.75" id="f9JGtnMrQK"></path><path d="" id="b68C2v8g4z"></path><path d="M46.82 55.04C35.45 58.63 25.7 58.78 17.59 55.49" id="c1d748xyzL"></path><path d="M18.6 13.93C32.68 13.87 41 13.74 43.54 13.54C46.08 13.34 47.47 14.31 47.72 16.44L46.55 72.54L45.75 72.36L44.28 72.81L31.28 72.36L18.23 67.79C18.26 65.69 18.26 64.23 18.23 63.39C18.2 62.55 17.5 47.18 16.12 17.28L18.6 13.93Z" id="al0fVjz8V"></path><path d="M19.54 14.02C16.8 13.36 15.66 14.88 16.12 18.57" id="b6X5hh85k"></path><path d="M30.73 49.38L30.73 49.38L21.51 15.14" id="fVAaOt7LF"></path><path d="M34.97 49.09L41.78 14.91" id="a6YMLi39Dn"></path><path d="" id="a1tdTOZmQX"></path></defs><g><g><g><use xlink:href="#b2fN5OqSxY" opacity="1" fill="#000000" fill-opacity="1"></use><g><use xlink:href="#b2fN5OqSxY" opacity="1" fill-opacity="0" stroke="#000000" stroke-width="5" stroke-opacity="1"></use></g></g><g><use xlink:href="#b1BEtA8CN" opacity="1" fill="#385fce" fill-opacity="1"></use></g><g><g><use xlink:href="#b15x8uaJIW" opacity="1" fill-opacity="0" stroke="#ffffff" stroke-width="2" stroke-opacity="1"></use></g></g><g><g><use xlink:href="#a3IGsB1zaz" opacity="1" fill-opacity="0" stroke="#ffffff" stroke-width="2" stroke-opacity="1"></use></g></g><g><g><use xlink:href="#aEywC8agM" opacity="1" fill-opacity="0" stroke="#ffffff" stroke-width="2" stroke-opacity="1"></use></g></g><g><use xlink:href="#f1lIfNusNO" opacity="1" fill="#ffffff" fill-opacity="0.55"></use></g><g><use xlink:href="#bcvHO4drL" opacity="1" fill="#ffffff" fill-opacity="0.55"></use></g><g><use xlink:href="#i23GjIfdX" opacity="1" fill="#ffffff" fill-opacity="0.55"></use></g><g><use xlink:href="#a62owZ3665" opacity="1" fill="#ffffff" fill-opacity="0.55"></use></g><g><use xlink:href="#k1zhVg7TCT" opacity="1" fill="#ffffff" fill-opacity="0.55"></use></g><g><use xlink:href="#b1BPFNC5bM" opacity="1" fill="#ffffff" fill-opacity="0.55"></use></g><g><use xlink:href="#a1Q1Kzkjt6" opacity="1" fill="#ffffff" fill-opacity="0.55"></use></g><g><g><use xlink:href="#aLax4Uq0O" opacity="1" fill-opacity="0" stroke="#000000" stroke-width="2" stroke-opacity="1"></use></g></g><g><g><use xlink:href="#bJdwzlO1v" opacity="1" fill-opacity="0" stroke="#000000" stroke-width="2" stroke-opacity="1"></use></g></g><g><g><use xlink:href="#au6oaijDH" opacity="1" fill-opacity="0" stroke="#ffffff" stroke-width="3" stroke-opacity="1"></use></g></g><g><g><use xlink:href="#b16sSdH0YD" opacity="1" fill-opacity="0" stroke="#ffffff" stroke-width="3" stroke-opacity="1"></use></g></g><g><g><use xlink:href="#f9JGtnMrQK" opacity="1" fill-opacity="0" stroke="#fffcfc" stroke-width="4" stroke-opacity="1"></use></g></g><g><g><use xlink:href="#b68C2v8g4z" opacity="1" fill-opacity="0" stroke="#b95757" stroke-width="4" stroke-opacity="1"></use></g></g><g><g><use xlink:href="#c1d748xyzL" opacity="1" fill-opacity="0" stroke="#ffffff" stroke-width="4" stroke-opacity="1"></use></g></g><g><g><use xlink:href="#al0fVjz8V" opacity="1" fill-opacity="0" stroke="#ffffff" stroke-width="4" stroke-opacity="1"></use></g></g><g><g><use xlink:href="#b6X5hh85k" opacity="1" fill-opacity="0" stroke="#ffffff" stroke-width="4" stroke-opacity="1"></use></g></g><g><g><use xlink:href="#fVAaOt7LF" opacity="1" fill-opacity="0" stroke="#ffffff" stroke-width="4" stroke-opacity="1"></use></g></g><g><g><use xlink:href="#a6YMLi39Dn" opacity="1" fill-opacity="0" stroke="#ffffff" stroke-width="4" stroke-opacity="1"></use></g></g><g><g><use xlink:href="#a1tdTOZmQX" opacity="1" fill-opacity="0" stroke="#ecd4d4" stroke-width="4" stroke-opacity="1"></use></g></g></g></g></svg>