<?xml version="1.0" encoding="UTF-8" standalone="no" ?>
<!DOCTYPE svg PUBLIC "-//W3C//DTD SVG 1.1//EN" "http://www.w3.org/Graphics/SVG/1.1/DTD/svg11.dtd">
<svg xmlns="http://www.w3.org/2000/svg" xmlns:xlink="http://www.w3.org/1999/xlink" version="1.1" width="1000" height="1000" viewBox="0 0 500 500" xml:space="preserve">
<desc>Created with Fabric.js 4.6.0</desc>
<defs>
</defs>
<g transform="matrix(1 0 0 1 165.43 212.77)" id="KT6owci6cSJM1fSIBoIry"  >
<g style="" vector-effect="non-scaling-stroke"   >
		<g transform="matrix(1 0 0 1 99.5 7.7)" id="4a35R8TYr3A8pzc0gISde"  >
<linearGradient id="SVGID_28" gradientUnits="userSpaceOnUse" gradientTransform="matrix(1 0 0 1 0 0)"  x1="3039.9507" y1="1521.7039" x2="3039.9507" y2="1521.7039">
<stop offset="0%" style="stop-color:rgb(0,255,201);stop-opacity: 1"/>
<stop offset="60.58%" style="stop-color:rgb(0,171,233);stop-opacity: 1"/>
<stop offset="86.33%" style="stop-color:rgb(255,85,213);stop-opacity: 1"/>
<stop offset="100%" style="stop-color:rgb(255,63,127);stop-opacity: 1"/>
</linearGradient>
<path style="stroke: none; stroke-width: 1; stroke-dasharray: none; stroke-linecap: butt; stroke-dashoffset: 0; stroke-linejoin: miter; stroke-miterlimit: 4; fill: url(#SVGID_28); fill-rule: nonzero; opacity: 1;" vector-effect="non-scaling-stroke"  transform=" translate(-3040, -1521.7)" d="M 3040 1521.7" stroke-linecap="round" />
</g>
		<g transform="matrix(1 0 0 1 56.1 7.8)" id="Bx50PB6SNu8EQ41CXlYGE"  >
<linearGradient id="SVGID_29" gradientUnits="userSpaceOnUse" gradientTransform="matrix(1 0 0 1 0 0)"  x1="3059.5786" y1="1522.0283" x2="2996.9763" y2="1521.8103">
<stop offset="0%" style="stop-color:rgb(0,255,201);stop-opacity: 1"/>
<stop offset="60.58%" style="stop-color:rgb(0,171,233);stop-opacity: 1"/>
<stop offset="86.33%" style="stop-color:rgb(255,85,213);stop-opacity: 1"/>
<stop offset="100%" style="stop-color:rgb(255,63,127);stop-opacity: 1"/>
</linearGradient>
<path style="stroke: none; stroke-width: 1; stroke-dasharray: none; stroke-linecap: butt; stroke-dashoffset: 0; stroke-linejoin: miter; stroke-miterlimit: 4; fill: url(#SVGID_29); fill-rule: nonzero; opacity: 1;" vector-effect="non-scaling-stroke"  transform=" translate(-2996.6, -1521.8)" d="M 2997.2 1521.6 L 2997.2 1522 C 2997.2 1522.3 2996.8999999999996 1522.6 2996.6 1522.6 L 2996.6 1522.6 C 2996.2999999999997 1522.6 2996 1522.3 2996 1522 L 2996 1521.6 C 2996 1521.3 2996.3 1521 2996.6 1521 L 2996.6 1521 C 2996.9 1521 2997.2 1521.3 2997.2 1521.6 z" stroke-linecap="round" />
</g>
		<g transform="matrix(1 0 0 1 96.2 7.8)" id="r_snNxp1RT3FX0BoUU2lE"  >
<linearGradient id="SVGID_30" gradientUnits="userSpaceOnUse" gradientTransform="matrix(1 0 0 1 0 0)"  x1="3059.5791" y1="1521.8884" x2="2996.9768" y2="1521.6703">
<stop offset="0%" style="stop-color:rgb(0,255,201);stop-opacity: 1"/>
<stop offset="60.58%" style="stop-color:rgb(0,171,233);stop-opacity: 1"/>
<stop offset="86.33%" style="stop-color:rgb(255,85,213);stop-opacity: 1"/>
<stop offset="100%" style="stop-color:rgb(255,63,127);stop-opacity: 1"/>
</linearGradient>
<path style="stroke: none; stroke-width: 1; stroke-dasharray: none; stroke-linecap: butt; stroke-dashoffset: 0; stroke-linejoin: miter; stroke-miterlimit: 4; fill: url(#SVGID_30); fill-rule: nonzero; opacity: 1;" vector-effect="non-scaling-stroke"  transform=" translate(-3036.7, -1521.8)" d="M 3037.3 1519.1 L 3037.3 1524.5 C 3037.3 1524.8 3037 1525.1 3036.7000000000003 1525.1 L 3036.7000000000003 1525.1 C 3036.4 1525.1 3036.1000000000004 1524.8 3036.1000000000004 1524.5 L 3036.1000000000004 1519.1 C 3036.1000000000004 1518.8 3036.4000000000005 1518.5 3036.7000000000003 1518.5 L 3036.7000000000003 1518.5 C 3037 1518.5 3037.3 1518.8 3037.3 1519.1 z" stroke-linecap="round" />
</g>
		<g transform="matrix(1 0 0 1 98.7 7.8)" id="CwrnK2T2YcEwV0YEXGb7r"  >
<linearGradient id="SVGID_31" gradientUnits="userSpaceOnUse" gradientTransform="matrix(1 0 0 1 0 0)"  x1="3059.5791" y1="1521.8798" x2="2996.9768" y2="1521.6616">
<stop offset="0%" style="stop-color:rgb(0,255,201);stop-opacity: 1"/>
<stop offset="60.58%" style="stop-color:rgb(0,171,233);stop-opacity: 1"/>
<stop offset="86.33%" style="stop-color:rgb(255,85,213);stop-opacity: 1"/>
<stop offset="100%" style="stop-color:rgb(255,63,127);stop-opacity: 1"/>
</linearGradient>
<path style="stroke: none; stroke-width: 1; stroke-dasharray: none; stroke-linecap: butt; stroke-dashoffset: 0; stroke-linejoin: miter; stroke-miterlimit: 4; fill: url(#SVGID_31); fill-rule: nonzero; opacity: 1;" vector-effect="non-scaling-stroke"  transform=" translate(-3039.2, -1521.8)" d="M 3039.8 1521.6 L 3039.8 1522 C 3039.8 1522.3 3039.5 1522.6 3039.2000000000003 1522.6 L 3039.2000000000003 1522.6 C 3038.9 1522.6 3038.6000000000004 1522.3 3038.6000000000004 1522 L 3038.6000000000004 1521.6 C 3038.6000000000004 1521.3 3038.9000000000005 1521 3039.2000000000003 1521 L 3039.2000000000003 1521 C 3039.6 1521 3039.8 1521.3 3039.8 1521.6 z" stroke-linecap="round" />
</g>
		<g transform="matrix(1 0 0 1 93.7 7.75)" id="Eo0QU2JLORxA82ynapL7V"  >
<linearGradient id="SVGID_32" gradientUnits="userSpaceOnUse" gradientTransform="matrix(1 0 0 1 0 0)"  x1="3059.5791" y1="1521.8973" x2="2996.9768" y2="1521.6792">
<stop offset="0%" style="stop-color:rgb(0,255,201);stop-opacity: 1"/>
<stop offset="60.58%" style="stop-color:rgb(0,171,233);stop-opacity: 1"/>
<stop offset="86.33%" style="stop-color:rgb(255,85,213);stop-opacity: 1"/>
<stop offset="100%" style="stop-color:rgb(255,63,127);stop-opacity: 1"/>
</linearGradient>
<path style="stroke: none; stroke-width: 1; stroke-dasharray: none; stroke-linecap: butt; stroke-dashoffset: 0; stroke-linejoin: miter; stroke-miterlimit: 4; fill: url(#SVGID_32); fill-rule: nonzero; opacity: 1;" vector-effect="non-scaling-stroke"  transform=" translate(-3034.2, -1521.75)" d="M 3034.6 1512.9 C 3034.7 1513 3034.7999999999997 1513.2 3034.7999999999997 1513.3000000000002 L 3034.7999999999997 1530.2000000000003 C 3034.7999999999997 1530.5000000000002 3034.4999999999995 1530.8000000000002 3034.2 1530.8000000000002 C 3034 1530.8000000000002 3033.8999999999996 1530.7000000000003 3033.7999999999997 1530.6000000000001 C 3033.7 1530.5000000000002 3033.6 1530.3000000000002 3033.6 1530.2 L 3033.6 1513.3 C 3033.6 1513 3033.9 1512.7 3034.2 1512.7 C 3034.4 1512.7 3034.5 1512.8 3034.6 1512.9 z" stroke-linecap="round" />
</g>
		<g transform="matrix(1 0 0 1 71.1 7.85)" id="VnSEKOmuS5BlUm01jMRGd"  >
<linearGradient id="SVGID_33" gradientUnits="userSpaceOnUse" gradientTransform="matrix(1 0 0 1 0 0)"  x1="3059.5786" y1="1521.9758" x2="2996.9766" y2="1521.7577">
<stop offset="0%" style="stop-color:rgb(0,255,201);stop-opacity: 1"/>
<stop offset="60.58%" style="stop-color:rgb(0,171,233);stop-opacity: 1"/>
<stop offset="86.33%" style="stop-color:rgb(255,85,213);stop-opacity: 1"/>
<stop offset="100%" style="stop-color:rgb(255,63,127);stop-opacity: 1"/>
</linearGradient>
<path style="stroke: none; stroke-width: 1; stroke-dasharray: none; stroke-linecap: butt; stroke-dashoffset: 0; stroke-linejoin: miter; stroke-miterlimit: 4; fill: url(#SVGID_33); fill-rule: nonzero; opacity: 1;" vector-effect="non-scaling-stroke"  transform=" translate(-3011.6, -1521.85)" d="M 3012.2 1517.5 L 3012.2 1526.2 C 3012.2 1526.5 3011.8999999999996 1526.8 3011.6 1526.8 L 3011.6 1526.8 C 3011.2999999999997 1526.8 3011 1526.5 3011 1526.2 L 3011 1517.5 C 3011 1517.2 3011.3 1516.9 3011.6 1516.9 L 3011.6 1516.9 C 3012 1516.9 3012.2 1517.1 3012.2 1517.5 z" stroke-linecap="round" />
</g>
		<g transform="matrix(1 0 0 1 91.2 8.9)" id="L8nliyV31ngK12tOCZD6a"  >
<linearGradient id="SVGID_34" gradientUnits="userSpaceOnUse" gradientTransform="matrix(1 0 0 1 0 0)"  x1="3059.575" y1="1523.0724" x2="2996.9727" y2="1522.8542">
<stop offset="0%" style="stop-color:rgb(0,255,201);stop-opacity: 1"/>
<stop offset="60.58%" style="stop-color:rgb(0,171,233);stop-opacity: 1"/>
<stop offset="86.33%" style="stop-color:rgb(255,85,213);stop-opacity: 1"/>
<stop offset="100%" style="stop-color:rgb(255,63,127);stop-opacity: 1"/>
</linearGradient>
<path style="stroke: none; stroke-width: 1; stroke-dasharray: none; stroke-linecap: butt; stroke-dashoffset: 0; stroke-linejoin: miter; stroke-miterlimit: 4; fill: url(#SVGID_34); fill-rule: nonzero; opacity: 1;" vector-effect="non-scaling-stroke"  transform=" translate(-3031.7, -1522.9)" d="M 3032.1 1508.6 C 3032.2 1508.6999999999998 3032.2999999999997 1508.8999999999999 3032.2999999999997 1509 L 3032.2999999999997 1536.8 C 3032.2999999999997 1537.1 3031.9999999999995 1537.3999999999999 3031.7 1537.3999999999999 C 3031.5 1537.3999999999999 3031.3999999999996 1537.3 3031.2999999999997 1537.1999999999998 C 3031.2 1537.1 3031.1 1536.8999999999999 3031.1 1536.7999999999997 L 3031.1 1508.9999999999998 C 3031.1 1508.6999999999998 3031.4 1508.3999999999999 3031.7 1508.3999999999999 C 3031.9 1508.5 3032 1508.5 3032.1 1508.6 z" stroke-linecap="round" />
</g>
		<g transform="matrix(1 0 0 1 68.6 7.8)" id="Vm3SJybfX-wQMXTKNzMrD"  >
<linearGradient id="SVGID_35" gradientUnits="userSpaceOnUse" gradientTransform="matrix(1 0 0 1 0 0)"  x1="3059.5786" y1="1521.9846" x2="2996.9766" y2="1521.7665">
<stop offset="0%" style="stop-color:rgb(0,255,201);stop-opacity: 1"/>
<stop offset="60.58%" style="stop-color:rgb(0,171,233);stop-opacity: 1"/>
<stop offset="86.33%" style="stop-color:rgb(255,85,213);stop-opacity: 1"/>
<stop offset="100%" style="stop-color:rgb(255,63,127);stop-opacity: 1"/>
</linearGradient>
<path style="stroke: none; stroke-width: 1; stroke-dasharray: none; stroke-linecap: butt; stroke-dashoffset: 0; stroke-linejoin: miter; stroke-miterlimit: 4; fill: url(#SVGID_35); fill-rule: nonzero; opacity: 1;" vector-effect="non-scaling-stroke"  transform=" translate(-3009.1, -1521.8)" d="M 3009.5 1512.1 C 3009.6 1512.1999999999998 3009.7 1512.3999999999999 3009.7 1512.5 L 3009.7 1531.1 C 3009.7 1531.3999999999999 3009.3999999999996 1531.6999999999998 3009.1 1531.6999999999998 C 3008.9 1531.6999999999998 3008.7999999999997 1531.6 3008.7 1531.4999999999998 C 3008.6 1531.3999999999999 3008.5 1531.1999999999998 3008.5 1531.0999999999997 L 3008.5 1512.4999999999998 C 3008.5 1512.1999999999998 3008.8 1511.8999999999999 3009.1 1511.8999999999999 C 3009.3 1511.9 3009.4 1512 3009.5 1512.1 z" stroke-linecap="round" />
</g>
		<g transform="matrix(1 0 0 1 58.6 7.75)" id="5lwXPCnBxXftwGC-crXP3"  >
<linearGradient id="SVGID_36" gradientUnits="userSpaceOnUse" gradientTransform="matrix(1 0 0 1 0 0)"  x1="3059.5786" y1="1522.0195" x2="2996.9763" y2="1521.8014">
<stop offset="0%" style="stop-color:rgb(0,255,201);stop-opacity: 1"/>
<stop offset="60.58%" style="stop-color:rgb(0,171,233);stop-opacity: 1"/>
<stop offset="86.33%" style="stop-color:rgb(255,85,213);stop-opacity: 1"/>
<stop offset="100%" style="stop-color:rgb(255,63,127);stop-opacity: 1"/>
</linearGradient>
<path style="stroke: none; stroke-width: 1; stroke-dasharray: none; stroke-linecap: butt; stroke-dashoffset: 0; stroke-linejoin: miter; stroke-miterlimit: 4; fill: url(#SVGID_36); fill-rule: nonzero; opacity: 1;" vector-effect="non-scaling-stroke"  transform=" translate(-2999.1, -1521.75)" d="M 2999.5 1517 C 2999.6 1517.1 2999.7 1517.3 2999.7 1517.4 L 2999.7 1526.1000000000001 C 2999.7 1526.4 2999.3999999999996 1526.7 2999.1 1526.7 C 2998.9 1526.7 2998.7999999999997 1526.6000000000001 2998.7 1526.5 C 2998.6 1526.4 2998.5 1526.2 2998.5 1526.1 L 2998.5 1517.3999999999999 C 2998.5 1517.1 2998.8 1516.8 2999.1 1516.8 C 2999.2 1516.9 2999.4 1516.9 2999.5 1517 z" stroke-linecap="round" />
</g>
		<g transform="matrix(1 0 0 1 73.7 7.75)" id="9s6041IcjC2_Fr2hf7ncb"  >
<linearGradient id="SVGID_37" gradientUnits="userSpaceOnUse" gradientTransform="matrix(1 0 0 1 0 0)"  x1="3059.5789" y1="1521.9673" x2="2996.9766" y2="1521.7491">
<stop offset="0%" style="stop-color:rgb(0,255,201);stop-opacity: 1"/>
<stop offset="60.58%" style="stop-color:rgb(0,171,233);stop-opacity: 1"/>
<stop offset="86.33%" style="stop-color:rgb(255,85,213);stop-opacity: 1"/>
<stop offset="100%" style="stop-color:rgb(255,63,127);stop-opacity: 1"/>
</linearGradient>
<path style="stroke: none; stroke-width: 1; stroke-dasharray: none; stroke-linecap: butt; stroke-dashoffset: 0; stroke-linejoin: miter; stroke-miterlimit: 4; fill: url(#SVGID_37); fill-rule: nonzero; opacity: 1;" vector-effect="non-scaling-stroke"  transform=" translate(-3014.2, -1521.75)" d="M 3014.6 1512.9 C 3014.7 1513 3014.7999999999997 1513.2 3014.7999999999997 1513.3000000000002 L 3014.7999999999997 1530.2000000000003 C 3014.7999999999997 1530.5000000000002 3014.4999999999995 1530.8000000000002 3014.2 1530.8000000000002 C 3014 1530.8000000000002 3013.8999999999996 1530.7000000000003 3013.7999999999997 1530.6000000000001 C 3013.7 1530.5000000000002 3013.6 1530.3000000000002 3013.6 1530.2 L 3013.6 1513.3 C 3013.6 1513 3013.9 1512.7 3014.2 1512.7 C 3014.3 1512.7 3014.4 1512.8 3014.6 1512.9 z" stroke-linecap="round" />
</g>
		<g transform="matrix(1 0 0 1 78.7 7.85)" id="ur40qktlf9i-U9yh6QOF-"  >
<linearGradient id="SVGID_38" gradientUnits="userSpaceOnUse" gradientTransform="matrix(1 0 0 1 0 0)"  x1="3059.5789" y1="1521.9496" x2="2996.9766" y2="1521.7314">
<stop offset="0%" style="stop-color:rgb(0,255,201);stop-opacity: 1"/>
<stop offset="60.58%" style="stop-color:rgb(0,171,233);stop-opacity: 1"/>
<stop offset="86.33%" style="stop-color:rgb(255,85,213);stop-opacity: 1"/>
<stop offset="100%" style="stop-color:rgb(255,63,127);stop-opacity: 1"/>
</linearGradient>
<path style="stroke: none; stroke-width: 1; stroke-dasharray: none; stroke-linecap: butt; stroke-dashoffset: 0; stroke-linejoin: miter; stroke-miterlimit: 4; fill: url(#SVGID_38); fill-rule: nonzero; opacity: 1;" vector-effect="non-scaling-stroke"  transform=" translate(-3019.2, -1521.85)" d="M 3019.8 1515.9 L 3019.8 1527.8000000000002 C 3019.8 1528.1000000000001 3019.5 1528.4 3019.2000000000003 1528.4 L 3019.2000000000003 1528.4 C 3018.9 1528.4 3018.6000000000004 1528.1000000000001 3018.6000000000004 1527.8000000000002 L 3018.6000000000004 1515.9 C 3018.6000000000004 1515.6000000000001 3018.9000000000005 1515.3000000000002 3019.2000000000003 1515.3000000000002 L 3019.2000000000003 1515.3000000000002 C 3019.5 1515.3 3019.8 1515.5 3019.8 1515.9 z" stroke-linecap="round" />
</g>
		<g transform="matrix(1 0 0 1 101.2 7.85)" id="-SoIQ6sIch4-6iOz9oLmq"  >
<linearGradient id="SVGID_39" gradientUnits="userSpaceOnUse" gradientTransform="matrix(1 0 0 1 0 0)"  x1="3059.5791" y1="1521.8711" x2="2996.9768" y2="1521.653">
<stop offset="0%" style="stop-color:rgb(0,255,201);stop-opacity: 1"/>
<stop offset="60.58%" style="stop-color:rgb(0,171,233);stop-opacity: 1"/>
<stop offset="86.33%" style="stop-color:rgb(255,85,213);stop-opacity: 1"/>
<stop offset="100%" style="stop-color:rgb(255,63,127);stop-opacity: 1"/>
</linearGradient>
<path style="stroke: none; stroke-width: 1; stroke-dasharray: none; stroke-linecap: butt; stroke-dashoffset: 0; stroke-linejoin: miter; stroke-miterlimit: 4; fill: url(#SVGID_39); fill-rule: nonzero; opacity: 1;" vector-effect="non-scaling-stroke"  transform=" translate(-3041.7, -1521.85)" d="M 3042.3 1513.4 L 3042.3 1530.3000000000002 C 3042.3 1530.6000000000001 3042 1530.9 3041.7000000000003 1530.9 C 3041.5000000000005 1530.9 3041.4 1530.8000000000002 3041.3 1530.7 C 3041.2000000000003 1530.6000000000001 3041.1000000000004 1530.4 3041.1000000000004 1530.3 L 3041.1000000000004 1513.3999999999999 C 3041.1000000000004 1513.1 3041.4000000000005 1512.8 3041.7000000000003 1512.8 C 3041.9 1512.8 3042.0000000000005 1512.8999999999999 3042.1000000000004 1513 C 3042.3 1513 3042.3 1513.2 3042.3 1513.4 z" stroke-linecap="round" />
</g>
		<g transform="matrix(1 0 0 1 88.7 7.85)" id="Av9DdmDsohLBf1jyGdDqA"  >
<linearGradient id="SVGID_40" gradientUnits="userSpaceOnUse" gradientTransform="matrix(1 0 0 1 0 0)"  x1="3059.5789" y1="1521.9147" x2="2996.9768" y2="1521.6965">
<stop offset="0%" style="stop-color:rgb(0,255,201);stop-opacity: 1"/>
<stop offset="60.58%" style="stop-color:rgb(0,171,233);stop-opacity: 1"/>
<stop offset="86.33%" style="stop-color:rgb(255,85,213);stop-opacity: 1"/>
<stop offset="100%" style="stop-color:rgb(255,63,127);stop-opacity: 1"/>
</linearGradient>
<path style="stroke: none; stroke-width: 1; stroke-dasharray: none; stroke-linecap: butt; stroke-dashoffset: 0; stroke-linejoin: miter; stroke-miterlimit: 4; fill: url(#SVGID_40); fill-rule: nonzero; opacity: 1;" vector-effect="non-scaling-stroke"  transform=" translate(-3029.2, -1521.85)" d="M 3029.8 1504.3 L 3029.8 1539.3999999999999 C 3029.8 1539.6999999999998 3029.5 1539.9999999999998 3029.2000000000003 1539.9999999999998 L 3029.2000000000003 1539.9999999999998 C 3028.9 1539.9999999999998 3028.6000000000004 1539.6999999999998 3028.6000000000004 1539.3999999999999 L 3028.6000000000004 1504.3 C 3028.6000000000004 1504 3028.9000000000005 1503.7 3029.2000000000003 1503.7 L 3029.2000000000003 1503.7 C 3029.5 1503.7 3029.8 1503.9 3029.8 1504.3 z" stroke-linecap="round" />
</g>
		<g transform="matrix(1 0 0 1 66.1 7.75)" id="aZJLCPUFfO_I6izLzGYeC"  >
<linearGradient id="SVGID_41" gradientUnits="userSpaceOnUse" gradientTransform="matrix(1 0 0 1 0 0)"  x1="3059.5786" y1="1521.9933" x2="2996.9766" y2="1521.7751">
<stop offset="0%" style="stop-color:rgb(0,255,201);stop-opacity: 1"/>
<stop offset="60.58%" style="stop-color:rgb(0,171,233);stop-opacity: 1"/>
<stop offset="86.33%" style="stop-color:rgb(255,85,213);stop-opacity: 1"/>
<stop offset="100%" style="stop-color:rgb(255,63,127);stop-opacity: 1"/>
</linearGradient>
<path style="stroke: none; stroke-width: 1; stroke-dasharray: none; stroke-linecap: butt; stroke-dashoffset: 0; stroke-linejoin: miter; stroke-miterlimit: 4; fill: url(#SVGID_41); fill-rule: nonzero; opacity: 1;" vector-effect="non-scaling-stroke"  transform=" translate(-3006.6, -1521.75)" d="M 3007 1519.5 C 3007.1 1519.6 3007.2 1519.8 3007.2 1519.9 L 3007.2 1523.6000000000001 C 3007.2 1523.9 3006.8999999999996 1524.2 3006.6 1524.2 C 3006.4 1524.2 3006.2999999999997 1524.1000000000001 3006.2 1524 C 3006.1 1523.9 3006 1523.7 3006 1523.6 L 3006 1519.8999999999999 C 3006 1519.6 3006.3 1519.3 3006.6 1519.3 C 3006.8 1519.3 3006.9 1519.4 3007 1519.5 z" stroke-linecap="round" />
</g>
		<g transform="matrix(1 0 0 1 83.7 7.8)" id="QwqUOXCezW5W2JP35MdlJ"  >
<linearGradient id="SVGID_42" gradientUnits="userSpaceOnUse" gradientTransform="matrix(1 0 0 1 0 0)"  x1="3059.5789" y1="1521.9323" x2="2996.9768" y2="1521.7141">
<stop offset="0%" style="stop-color:rgb(0,255,201);stop-opacity: 1"/>
<stop offset="60.58%" style="stop-color:rgb(0,171,233);stop-opacity: 1"/>
<stop offset="86.33%" style="stop-color:rgb(255,85,213);stop-opacity: 1"/>
<stop offset="100%" style="stop-color:rgb(255,63,127);stop-opacity: 1"/>
</linearGradient>
<path style="stroke: none; stroke-width: 1; stroke-dasharray: none; stroke-linecap: butt; stroke-dashoffset: 0; stroke-linejoin: miter; stroke-miterlimit: 4; fill: url(#SVGID_42); fill-rule: nonzero; opacity: 1;" vector-effect="non-scaling-stroke"  transform=" translate(-3024.2, -1521.8)" d="M 3024.6 1517.9 C 3024.7 1518 3024.7999999999997 1518.2 3024.7999999999997 1518.3000000000002 L 3024.7999999999997 1525.3000000000002 C 3024.7999999999997 1525.6000000000001 3024.4999999999995 1525.9 3024.2 1525.9 C 3024 1525.9 3023.8999999999996 1525.8000000000002 3023.7999999999997 1525.7 C 3023.7 1525.6000000000001 3023.6 1525.4 3023.6 1525.3 L 3023.6 1518.3 C 3023.6 1518 3023.9 1517.7 3024.2 1517.7 C 3024.3 1517.7 3024.5 1517.8 3024.6 1517.9 z" stroke-linecap="round" />
</g>
		<g transform="matrix(1 0 0 1 81.2 7.8)" id="N6xkbaY4DS2UVEdjJjrEe"  >
<linearGradient id="SVGID_43" gradientUnits="userSpaceOnUse" gradientTransform="matrix(1 0 0 1 0 0)"  x1="3059.5789" y1="1521.9408" x2="2996.9766" y2="1521.7228">
<stop offset="0%" style="stop-color:rgb(0,255,201);stop-opacity: 1"/>
<stop offset="60.58%" style="stop-color:rgb(0,171,233);stop-opacity: 1"/>
<stop offset="86.33%" style="stop-color:rgb(255,85,213);stop-opacity: 1"/>
<stop offset="100%" style="stop-color:rgb(255,63,127);stop-opacity: 1"/>
</linearGradient>
<path style="stroke: none; stroke-width: 1; stroke-dasharray: none; stroke-linecap: butt; stroke-dashoffset: 0; stroke-linejoin: miter; stroke-miterlimit: 4; fill: url(#SVGID_43); fill-rule: nonzero; opacity: 1;" vector-effect="non-scaling-stroke"  transform=" translate(-3021.7, -1521.8)" d="M 3022.3 1519.1 L 3022.3 1524.5 C 3022.3 1524.8 3022 1525.1 3021.7000000000003 1525.1 L 3021.7000000000003 1525.1 C 3021.4 1525.1 3021.1000000000004 1524.8 3021.1000000000004 1524.5 L 3021.1000000000004 1519.1 C 3021.1000000000004 1518.8 3021.4000000000005 1518.5 3021.7000000000003 1518.5 L 3021.7000000000003 1518.5 C 3022 1518.5 3022.3 1518.8 3022.3 1519.1 z" stroke-linecap="round" />
</g>
		<g transform="matrix(1 0 0 1 61.1 5.95)" id="pmnAKU-maKBLAkIO0PjVC"  >
<linearGradient id="SVGID_44" gradientUnits="userSpaceOnUse" gradientTransform="matrix(1 0 0 1 0 0)"  x1="3059.5852" y1="1520.116" x2="2996.9829" y2="1519.8978">
<stop offset="0%" style="stop-color:rgb(0,255,201);stop-opacity: 1"/>
<stop offset="60.58%" style="stop-color:rgb(0,171,233);stop-opacity: 1"/>
<stop offset="86.33%" style="stop-color:rgb(255,85,213);stop-opacity: 1"/>
<stop offset="100%" style="stop-color:rgb(255,63,127);stop-opacity: 1"/>
</linearGradient>
<path style="stroke: none; stroke-width: 1; stroke-dasharray: none; stroke-linecap: butt; stroke-dashoffset: 0; stroke-linejoin: miter; stroke-miterlimit: 4; fill: url(#SVGID_44); fill-rule: nonzero; opacity: 1;" vector-effect="non-scaling-stroke"  transform=" translate(-3001.6, -1519.95)" d="M 3002.2 1497.7 L 3002.2 1542.1000000000001 C 3002.2 1542.4 3001.8999999999996 1542.6000000000001 3001.6 1542.6000000000001 C 3001.4 1542.6000000000001 3001.2999999999997 1542.5000000000002 3001.2 1542.5000000000002 C 3001.1 1542.4000000000003 3001 1542.3000000000002 3001 1542.2000000000003 L 3001 1497.8000000000002 C 3001 1497.5000000000002 3001.3 1497.3000000000002 3001.6 1497.3000000000002 C 3001.7999999999997 1497.3000000000002 3001.9 1497.4 3002 1497.4 C 3002.1 1497.4 3002.2 1497.6 3002.2 1497.7 z" stroke-linecap="round" />
</g>
		<g transform="matrix(1 0 0 1 86.2 7.8)" id="zdx2K28Rb0B4r340FY_EE"  >
<linearGradient id="SVGID_45" gradientUnits="userSpaceOnUse" gradientTransform="matrix(1 0 0 1 0 0)"  x1="3059.5789" y1="1521.9236" x2="2996.9768" y2="1521.7054">
<stop offset="0%" style="stop-color:rgb(0,255,201);stop-opacity: 1"/>
<stop offset="60.58%" style="stop-color:rgb(0,171,233);stop-opacity: 1"/>
<stop offset="86.33%" style="stop-color:rgb(255,85,213);stop-opacity: 1"/>
<stop offset="100%" style="stop-color:rgb(255,63,127);stop-opacity: 1"/>
</linearGradient>
<path style="stroke: none; stroke-width: 1; stroke-dasharray: none; stroke-linecap: butt; stroke-dashoffset: 0; stroke-linejoin: miter; stroke-miterlimit: 4; fill: url(#SVGID_45); fill-rule: nonzero; opacity: 1;" vector-effect="non-scaling-stroke"  transform=" translate(-3026.7, -1521.8)" d="M 3027.1 1508 C 3027.2 1508.1 3027.2999999999997 1508.3 3027.2999999999997 1508.4 L 3027.2999999999997 1535.2 C 3027.2999999999997 1535.5 3026.9999999999995 1535.8 3026.7 1535.8 C 3026.5 1535.8 3026.3999999999996 1535.7 3026.2999999999997 1535.6 C 3026.2 1535.5 3026.1 1535.3 3026.1 1535.1999999999998 L 3026.1 1508.3999999999999 C 3026.1 1508.1 3026.4 1507.8 3026.7 1507.8 C 3026.8 1507.8 3027 1507.9 3027.1 1508 z" stroke-linecap="round" />
</g>
		<g transform="matrix(1 0 0 1 63.6 7.8)" id="uLcxqPYf0OGA1rR7skBbw"  >
<linearGradient id="SVGID_46" gradientUnits="userSpaceOnUse" gradientTransform="matrix(1 0 0 1 0 0)"  x1="3059.5786" y1="1522.0022" x2="2996.9766" y2="1521.7842">
<stop offset="0%" style="stop-color:rgb(0,255,201);stop-opacity: 1"/>
<stop offset="60.58%" style="stop-color:rgb(0,171,233);stop-opacity: 1"/>
<stop offset="86.33%" style="stop-color:rgb(255,85,213);stop-opacity: 1"/>
<stop offset="100%" style="stop-color:rgb(255,63,127);stop-opacity: 1"/>
</linearGradient>
<path style="stroke: none; stroke-width: 1; stroke-dasharray: none; stroke-linecap: butt; stroke-dashoffset: 0; stroke-linejoin: miter; stroke-miterlimit: 4; fill: url(#SVGID_46); fill-rule: nonzero; opacity: 1;" vector-effect="non-scaling-stroke"  transform=" translate(-3004.1, -1521.8)" d="M 3004.7 1508.4 L 3004.7 1535.2 C 3004.7 1535.5 3004.3999999999996 1535.8 3004.1 1535.8 L 3004.1 1535.8 C 3003.7999999999997 1535.8 3003.5 1535.5 3003.5 1535.2 L 3003.5 1508.4 C 3003.5 1508.1000000000001 3003.8 1507.8000000000002 3004.1 1507.8000000000002 L 3004.1 1507.8000000000002 C 3004.4 1507.8 3004.7 1508.1 3004.7 1508.4 z" stroke-linecap="round" />
</g>
		<g transform="matrix(1 0 0 1 76.2 7.8)" id="VY5DJrq5ZPaa9qYXvVfpt"  >
<linearGradient id="SVGID_47" gradientUnits="userSpaceOnUse" gradientTransform="matrix(1 0 0 1 0 0)"  x1="3059.5789" y1="1521.9584" x2="2996.9766" y2="1521.7402">
<stop offset="0%" style="stop-color:rgb(0,255,201);stop-opacity: 1"/>
<stop offset="60.58%" style="stop-color:rgb(0,171,233);stop-opacity: 1"/>
<stop offset="86.33%" style="stop-color:rgb(255,85,213);stop-opacity: 1"/>
<stop offset="100%" style="stop-color:rgb(255,63,127);stop-opacity: 1"/>
</linearGradient>
<path style="stroke: none; stroke-width: 1; stroke-dasharray: none; stroke-linecap: butt; stroke-dashoffset: 0; stroke-linejoin: miter; stroke-miterlimit: 4; fill: url(#SVGID_47); fill-rule: nonzero; opacity: 1;" vector-effect="non-scaling-stroke"  transform=" translate(-3016.7, -1521.8)" d="M 3017.1 1511.3 C 3017.2 1511.3999999999999 3017.2999999999997 1511.6 3017.2999999999997 1511.7 L 3017.2999999999997 1531.9 C 3017.2999999999997 1532.2 3016.9999999999995 1532.5 3016.7 1532.5 C 3016.5 1532.5 3016.3999999999996 1532.4 3016.2999999999997 1532.3 C 3016.2 1532.2 3016.1 1532 3016.1 1531.8999999999999 L 3016.1 1511.6999999999998 C 3016.1 1511.3999999999999 3016.4 1511.1 3016.7 1511.1 C 3016.8 1511.1 3017 1511.2 3017.1 1511.3 z" stroke-linecap="round" />
</g>
		<g transform="matrix(1 0 0 1 103.8 7.85)" id="vB-FOEy0RDtdf3Gaqpat5"  >
<linearGradient id="SVGID_48" gradientUnits="userSpaceOnUse" gradientTransform="matrix(1 0 0 1 0 0)"  x1="3059.5791" y1="1521.8622" x2="2996.9771" y2="1521.644">
<stop offset="0%" style="stop-color:rgb(0,255,201);stop-opacity: 1"/>
<stop offset="60.58%" style="stop-color:rgb(0,171,233);stop-opacity: 1"/>
<stop offset="86.33%" style="stop-color:rgb(255,85,213);stop-opacity: 1"/>
<stop offset="100%" style="stop-color:rgb(255,63,127);stop-opacity: 1"/>
</linearGradient>
<path style="stroke: none; stroke-width: 1; stroke-dasharray: none; stroke-linecap: butt; stroke-dashoffset: 0; stroke-linejoin: miter; stroke-miterlimit: 4; fill: url(#SVGID_48); fill-rule: nonzero; opacity: 1;" vector-effect="non-scaling-stroke"  transform=" translate(-3044.3, -1521.85)" d="M 3044.9 1517.5 L 3044.9 1526.2 C 3044.9 1526.5 3044.6 1526.8 3044.3 1526.8 L 3044.3 1526.8 C 3044 1526.8 3043.7000000000003 1526.5 3043.7000000000003 1526.2 L 3043.7000000000003 1517.5 C 3043.7000000000003 1517.2 3044.0000000000005 1516.9 3044.3 1516.9 L 3044.3 1516.9 C 3044.6 1516.9 3044.9 1517.1 3044.9 1517.5 z" stroke-linecap="round" />
</g>
		<g transform="matrix(1 0 0 1 106.3 7.85)" id="FNiKgG_FmdLhFnoJeQg2r"  >
<linearGradient id="SVGID_49" gradientUnits="userSpaceOnUse" gradientTransform="matrix(1 0 0 1 0 0)"  x1="3059.5791" y1="1521.8535" x2="2996.9771" y2="1521.6354">
<stop offset="0%" style="stop-color:rgb(0,255,201);stop-opacity: 1"/>
<stop offset="60.58%" style="stop-color:rgb(0,171,233);stop-opacity: 1"/>
<stop offset="86.33%" style="stop-color:rgb(255,85,213);stop-opacity: 1"/>
<stop offset="100%" style="stop-color:rgb(255,63,127);stop-opacity: 1"/>
</linearGradient>
<path style="stroke: none; stroke-width: 1; stroke-dasharray: none; stroke-linecap: butt; stroke-dashoffset: 0; stroke-linejoin: miter; stroke-miterlimit: 4; fill: url(#SVGID_49); fill-rule: nonzero; opacity: 1;" vector-effect="non-scaling-stroke"  transform=" translate(-3046.8, -1521.85)" d="M 3047.4 1520.8 L 3047.4 1522.8999999999999 C 3047.4 1523.1999999999998 3047.1 1523.4999999999998 3046.8 1523.4999999999998 L 3046.8 1523.4999999999998 C 3046.5 1523.4999999999998 3046.2000000000003 1523.1999999999998 3046.2000000000003 1522.8999999999999 L 3046.2000000000003 1520.8 C 3046.2000000000003 1520.5 3046.5000000000005 1520.2 3046.8 1520.2 L 3046.8 1520.2 C 3047.1 1520.2 3047.4 1520.4 3047.4 1520.8 z" stroke-linecap="round" />
</g>
		<g transform="matrix(1 0 0 1 108.8 7.8)" id="TwROjKRqNNebSw-6HDgub"  >
<linearGradient id="SVGID_50" gradientUnits="userSpaceOnUse" gradientTransform="matrix(1 0 0 1 0 0)"  x1="3059.5791" y1="1521.8447" x2="2996.9771" y2="1521.6266">
<stop offset="0%" style="stop-color:rgb(0,255,201);stop-opacity: 1"/>
<stop offset="60.58%" style="stop-color:rgb(0,171,233);stop-opacity: 1"/>
<stop offset="86.33%" style="stop-color:rgb(255,85,213);stop-opacity: 1"/>
<stop offset="100%" style="stop-color:rgb(255,63,127);stop-opacity: 1"/>
</linearGradient>
<path style="stroke: none; stroke-width: 1; stroke-dasharray: none; stroke-linecap: butt; stroke-dashoffset: 0; stroke-linejoin: miter; stroke-miterlimit: 4; fill: url(#SVGID_50); fill-rule: nonzero; opacity: 1;" vector-effect="non-scaling-stroke"  transform=" translate(-3049.3, -1521.8)" d="M 3049.9 1519.1 L 3049.9 1524.5 C 3049.9 1524.8 3049.6 1525.1 3049.3 1525.1 L 3049.3 1525.1 C 3049 1525.1 3048.7000000000003 1524.8 3048.7000000000003 1524.5 L 3048.7000000000003 1519.1 C 3048.7000000000003 1518.8 3049.0000000000005 1518.5 3049.3 1518.5 L 3049.3 1518.5 C 3049.6 1518.5 3049.9 1518.8 3049.9 1519.1 z" stroke-linecap="round" />
</g>
		<g transform="matrix(1 0 0 1 111.3 7.8)" id="kyN-CdDweOLApZxO_aLtN"  >
<linearGradient id="SVGID_51" gradientUnits="userSpaceOnUse" gradientTransform="matrix(1 0 0 1 0 0)"  x1="3059.5791" y1="1521.8359" x2="2996.9771" y2="1521.6178">
<stop offset="0%" style="stop-color:rgb(0,255,201);stop-opacity: 1"/>
<stop offset="60.58%" style="stop-color:rgb(0,171,233);stop-opacity: 1"/>
<stop offset="86.33%" style="stop-color:rgb(255,85,213);stop-opacity: 1"/>
<stop offset="100%" style="stop-color:rgb(255,63,127);stop-opacity: 1"/>
</linearGradient>
<path style="stroke: none; stroke-width: 1; stroke-dasharray: none; stroke-linecap: butt; stroke-dashoffset: 0; stroke-linejoin: miter; stroke-miterlimit: 4; fill: url(#SVGID_51); fill-rule: nonzero; opacity: 1;" vector-effect="non-scaling-stroke"  transform=" translate(-3051.8, -1521.8)" d="M 3052.4 1518.3 L 3052.4 1525.3 C 3052.4 1525.6 3052.1 1525.8999999999999 3051.8 1525.8999999999999 L 3051.8 1525.8999999999999 C 3051.5 1525.8999999999999 3051.2000000000003 1525.6 3051.2000000000003 1525.3 L 3051.2000000000003 1518.3 C 3051.2000000000003 1518 3051.5000000000005 1517.7 3051.8 1517.7 L 3051.8 1517.7 C 3052.1 1517.7 3052.4 1518 3052.4 1518.3 z" stroke-linecap="round" />
</g>
		<g transform="matrix(1 0 0 1 113.8 7.85)" id="JfZ-Q0C6xy8ayTvewbHWT"  >
<linearGradient id="SVGID_52" gradientUnits="userSpaceOnUse" gradientTransform="matrix(1 0 0 1 0 0)"  x1="3059.5793" y1="1521.8273" x2="2996.9771" y2="1521.6091">
<stop offset="0%" style="stop-color:rgb(0,255,201);stop-opacity: 1"/>
<stop offset="60.58%" style="stop-color:rgb(0,171,233);stop-opacity: 1"/>
<stop offset="86.33%" style="stop-color:rgb(255,85,213);stop-opacity: 1"/>
<stop offset="100%" style="stop-color:rgb(255,63,127);stop-opacity: 1"/>
</linearGradient>
<path style="stroke: none; stroke-width: 1; stroke-dasharray: none; stroke-linecap: butt; stroke-dashoffset: 0; stroke-linejoin: miter; stroke-miterlimit: 4; fill: url(#SVGID_52); fill-rule: nonzero; opacity: 1;" vector-effect="non-scaling-stroke"  transform=" translate(-3054.3, -1521.85)" d="M 3054.9 1520.8 L 3054.9 1522.8999999999999 C 3054.9 1523.1999999999998 3054.6 1523.4999999999998 3054.3 1523.4999999999998 L 3054.3 1523.4999999999998 C 3054 1523.4999999999998 3053.7000000000003 1523.1999999999998 3053.7000000000003 1522.8999999999999 L 3053.7000000000003 1520.8 C 3053.7000000000003 1520.5 3054.0000000000005 1520.2 3054.3 1520.2 L 3054.3 1520.2 C 3054.6 1520.2 3054.9 1520.4 3054.9 1520.8 z" stroke-linecap="round" />
</g>
		<g transform="matrix(1 0 0 1 116.3 7.84)" id="GGsm_ZaYu2ocUGkNF3_1t"  >
<linearGradient id="SVGID_53" gradientUnits="userSpaceOnUse" gradientTransform="matrix(1 0 0 1 0 0)"  x1="3059.5793" y1="1521.8185" x2="2996.9771" y2="1521.6003">
<stop offset="0%" style="stop-color:rgb(0,255,201);stop-opacity: 1"/>
<stop offset="60.58%" style="stop-color:rgb(0,171,233);stop-opacity: 1"/>
<stop offset="86.33%" style="stop-color:rgb(255,85,213);stop-opacity: 1"/>
<stop offset="100%" style="stop-color:rgb(255,63,127);stop-opacity: 1"/>
</linearGradient>
<path style="stroke: none; stroke-width: 1; stroke-dasharray: none; stroke-linecap: butt; stroke-dashoffset: 0; stroke-linejoin: miter; stroke-miterlimit: 4; fill: url(#SVGID_53); fill-rule: nonzero; opacity: 1;" vector-effect="non-scaling-stroke"  transform=" translate(-3056.8, -1521.84)" d="M 3057.4 1520 L 3057.4 1523.7 C 3057.4 1524 3057.1 1524.3 3056.8 1524.3 L 3056.8 1524.3 C 3056.5 1524.3 3056.2000000000003 1524 3056.2000000000003 1523.7 L 3056.2000000000003 1520 C 3056.2000000000003 1519.7 3056.5000000000005 1519.4 3056.8 1519.4 L 3056.8 1519.4 C 3057.1 1519.3 3057.4 1519.6 3057.4 1520 z" stroke-linecap="round" />
</g>
		<g transform="matrix(1 0 0 1 118.8 7.8)" id="p6mVVmwte7dLN2qzOw72T"  >
<linearGradient id="SVGID_54" gradientUnits="userSpaceOnUse" gradientTransform="matrix(1 0 0 1 0 0)"  x1="3059.5793" y1="1521.8097" x2="2996.9771" y2="1521.5917">
<stop offset="0%" style="stop-color:rgb(0,255,201);stop-opacity: 1"/>
<stop offset="60.58%" style="stop-color:rgb(0,171,233);stop-opacity: 1"/>
<stop offset="86.33%" style="stop-color:rgb(255,85,213);stop-opacity: 1"/>
<stop offset="100%" style="stop-color:rgb(255,63,127);stop-opacity: 1"/>
</linearGradient>
<path style="stroke: none; stroke-width: 1; stroke-dasharray: none; stroke-linecap: butt; stroke-dashoffset: 0; stroke-linejoin: miter; stroke-miterlimit: 4; fill: url(#SVGID_54); fill-rule: nonzero; opacity: 1;" vector-effect="non-scaling-stroke"  transform=" translate(-3059.3, -1521.8)" d="M 3059.9 1521.6 L 3059.9 1522 C 3059.9 1522.3 3059.6 1522.6 3059.3 1522.6 L 3059.3 1522.6 C 3059 1522.6 3058.7000000000003 1522.3 3058.7000000000003 1522 L 3058.7000000000003 1521.6 C 3058.7000000000003 1521.3 3059.0000000000005 1521 3059.3 1521 L 3059.3 1521 C 3059.6 1521 3059.9 1521.3 3059.9 1521.6 z" stroke-linecap="round" />
</g>
</g>
</g>
</svg>