<?xml version="1.0" encoding="UTF-8" standalone="no"?>
<!DOCTYPE svg PUBLIC "-//W3C//DTD SVG 1.1//EN" "http://www.w3.org/Graphics/SVG/1.1/DTD/svg11.dtd">
<svg version="1.1" xmlns="http://www.w3.org/2000/svg" xmlns:xlink="http://www.w3.org/1999/xlink" preserveAspectRatio="xMidYMid meet" viewBox="0 0 64 64" width="64" height="64"><defs><path d="M64 32C64 49.66 49.66 64 32 64C14.34 64 0 49.66 0 32C0 14.34 14.34 0 32 0C49.66 0 64 14.34 64 32Z" id="bb6y6jRBh"></path><path d="M54 16.67C54 21.45 50.04 25.33 45.15 25.33C40.27 25.33 36.3 21.45 36.3 16.67C36.3 11.88 40.27 8 45.15 8C50.04 8 54 11.88 54 16.67Z" id="eqxx88Vso"></path><path d="M53.93 37.14C53.93 41.92 49.96 45.81 45.08 45.81C40.2 45.81 36.23 41.92 36.23 37.14C36.23 32.36 40.2 28.47 45.08 28.47C49.96 28.47 53.93 32.36 53.93 37.14Z" id="k49j9nq1s"></path><path d="M36.23 16.67L53.93 16.67L53.93 37.14L36.23 37.14L36.23 16.67Z" id="c1rnLym0Zn"></path><path d="M38.75 61.19L51.25 61.19L51.25 63.55L38.75 63.55L38.75 61.19Z" id="a2MwkbM7r"></path><path d="M52.5 62.37C52.5 63.02 51.94 63.55 51.25 63.55C50.56 63.55 50 63.02 50 62.37C50 61.72 50.56 61.19 51.25 61.19C51.94 61.19 52.5 61.72 52.5 62.37Z" id="dzLElJNaU"></path><path d="M40 62.37C40 63.02 39.44 63.55 38.75 63.55C38.06 63.55 37.5 63.02 37.5 62.37C37.5 61.72 38.06 61.19 38.75 61.19C39.44 61.19 40 61.72 40 62.37Z" id="c30guHVAoX"></path><path d="" id="at9qiVYB5"></path><path d="M43.75 49.39L46.5 49.39L46.5 61.19L43.75 61.19L43.75 49.39Z" id="blc1vfMxx"></path><path d="M58.75 30.52C58.72 44 54.16 50.67 45.08 50.55" id="c3kS1j3YuG"></path><path d="M60 30C60 30.65 59.44 31.18 58.75 31.18C58.06 31.18 57.5 30.65 57.5 30C57.5 29.35 58.06 28.82 58.75 28.82C59.44 28.82 60 29.35 60 30Z" id="h14DcGA0ri"></path><path d="M32.5 30C32.5 30.65 31.94 31.18 31.25 31.18C30.56 31.18 30 30.65 30 30C30 29.35 30.56 28.82 31.25 28.82C31.94 28.82 32.5 29.35 32.5 30Z" id="hngkbZdps"></path><path d="M33.97 32.91C33.97 33.51 33.53 34 32.98 34C32.44 34 32 33.51 32 32.91C32 32.31 32.44 31.82 32.98 31.82C33.53 31.82 33.97 32.31 33.97 32.91Z" id="aqOsU6ddb"></path><path d="M58.03 32.79C58.03 33.39 57.58 33.88 57.04 33.88C56.5 33.88 56.06 33.39 56.06 32.79C56.06 32.18 56.5 31.69 57.04 31.69C57.58 31.69 58.03 32.18 58.03 32.79Z" id="a57tI4frDM"></path><path d="" id="dyCasK25c"></path><path d="M42.53 19.01C42.92 19.01 43.24 19.33 43.24 19.71C43.24 19.85 43.24 19.57 43.24 19.71C43.24 20.1 42.92 20.42 42.53 20.42C41.23 20.42 38.01 20.42 36.7 20.42C36.31 20.42 36 20.1 36 19.71C36 19.57 36 19.85 36 19.71C36 19.33 36.31 19.01 36.7 19.01C38.01 19.01 41.23 19.01 42.53 19.01Z" id="a1hgmvnATQ"></path><path d="M53.53 19C53.92 19 54.24 19.31 54.24 19.7C54.24 19.84 54.24 19.56 54.24 19.7C54.24 20.09 53.92 20.41 53.53 20.41C52.23 20.41 49.01 20.41 47.7 20.41C47.31 20.41 47 20.09 47 19.7C47 19.56 47 19.84 47 19.7C47 19.31 47.31 19 47.7 19C49.01 19 52.23 19 53.53 19Z" id="d3MZ09YPKK"></path><path d="M53.3 22.59C53.69 22.59 54 22.91 54 23.3C54 23.44 54 23.16 54 23.3C54 23.69 53.69 24 53.3 24C51.99 24 48.77 24 47.47 24C47.08 24 46.76 23.69 46.76 23.3C46.76 23.16 46.76 23.44 46.76 23.3C46.76 22.91 47.08 22.59 47.47 22.59C48.77 22.59 51.99 22.59 53.3 22.59Z" id="f9dsYy3CR"></path><path d="M42.53 22.59C42.92 22.59 43.24 22.91 43.24 23.3C43.24 23.44 43.24 23.16 43.24 23.3C43.24 23.69 42.92 24 42.53 24C41.23 24 38.01 24 36.7 24C36.31 24 36 23.69 36 23.3C36 23.16 36 23.44 36 23.3C36 22.91 36.31 22.59 36.7 22.59C38.01 22.59 41.23 22.59 42.53 22.59Z" id="aF8jy2Iw"></path><path d="M53.53 26C53.92 26 54.24 26.31 54.24 26.7C54.24 26.84 54.24 26.56 54.24 26.7C54.24 27.09 53.92 27.41 53.53 27.41C52.23 27.41 49.01 27.41 47.7 27.41C47.31 27.41 47 27.09 47 26.7C47 26.56 47 26.84 47 26.7C47 26.31 47.31 26 47.7 26C49.01 26 52.23 26 53.53 26Z" id="b3iGr14Du1"></path><path d="M53.3 29.3C53.69 29.3 54 29.61 54 30C54 30.14 54 29.86 54 30C54 30.39 53.69 30.7 53.3 30.7C51.99 30.7 48.77 30.7 47.47 30.7C47.08 30.7 46.76 30.39 46.76 30C46.76 29.86 46.76 30.14 46.76 30C46.76 29.61 47.08 29.3 47.47 29.3C48.77 29.3 51.99 29.3 53.3 29.3Z" id="bjv305LH4"></path><path d="M42.53 26C42.92 26 43.24 26.31 43.24 26.7C43.24 26.84 43.24 26.56 43.24 26.7C43.24 27.09 42.92 27.41 42.53 27.41C41.23 27.41 38.01 27.41 36.7 27.41C36.31 27.41 36 27.09 36 26.7C36 26.56 36 26.84 36 26.7C36 26.31 36.31 26 36.7 26C38.01 26 41.23 26 42.53 26Z" id="b4bPEeaatx"></path><path d="M42.53 29.3C42.92 29.3 43.24 29.61 43.24 30C43.24 30.14 43.24 29.86 43.24 30C43.24 30.39 42.92 30.7 42.53 30.7C41.23 30.7 38.01 30.7 36.7 30.7C36.31 30.7 36 30.39 36 30C36 29.86 36 30.14 36 30C36 29.61 36.31 29.3 36.7 29.3C38.01 29.3 41.23 29.3 42.53 29.3Z" id="aH7TkArR7"></path><path d="M31.16 30.48C31.2 43.95 35.75 50.63 44.84 50.5" id="b2SKx76Vq4"></path></defs><g><g><g><use xlink:href="#bb6y6jRBh" opacity="1" fill="#b00b0b" fill-opacity="1"></use></g><g><use xlink:href="#eqxx88Vso" opacity="1" fill="#ffffff" fill-opacity="1"></use></g><g><use xlink:href="#k49j9nq1s" opacity="1" fill="#ffffff" fill-opacity="1"></use></g><g><use xlink:href="#c1rnLym0Zn" opacity="1" fill="#ffffff" fill-opacity="1"></use></g><g><use xlink:href="#a2MwkbM7r" opacity="1" fill="#ffffff" fill-opacity="1"></use></g><g><use xlink:href="#dzLElJNaU" opacity="1" fill="#ffffff" fill-opacity="1"></use></g><g><use xlink:href="#c30guHVAoX" opacity="1" fill="#ffffff" fill-opacity="1"></use></g><g><g><use xlink:href="#at9qiVYB5" opacity="1" fill-opacity="0" stroke="#ffffff" stroke-width="1" stroke-opacity="1"></use></g></g><g><use xlink:href="#blc1vfMxx" opacity="1" fill="#ffffff" fill-opacity="1"></use></g><g><g><use xlink:href="#c3kS1j3YuG" opacity="1" fill-opacity="0" stroke="#ffffff" stroke-width="2" stroke-opacity="1"></use></g></g><g><use xlink:href="#h14DcGA0ri" opacity="1" fill="#ffffff" fill-opacity="1"></use></g><g><use xlink:href="#hngkbZdps" opacity="1" fill="#fff9f9" fill-opacity="1"></use></g><g><use xlink:href="#aqOsU6ddb" opacity="1" fill="#ffffff" fill-opacity="1"></use></g><g><use xlink:href="#a57tI4frDM" opacity="1" fill="#ffffff" fill-opacity="1"></use></g><g><g><use xlink:href="#dyCasK25c" opacity="1" fill-opacity="0" stroke="#000000" stroke-width="1" stroke-opacity="1"></use></g></g><g><use xlink:href="#a1hgmvnATQ" opacity="1" fill="#b00b0b" fill-opacity="1"></use></g><g><use xlink:href="#d3MZ09YPKK" opacity="1" fill="#b00b0b" fill-opacity="1"></use></g><g><use xlink:href="#f9dsYy3CR" opacity="1" fill="#b00b0b" fill-opacity="1"></use></g><g><use xlink:href="#aF8jy2Iw" opacity="1" fill="#b00b0b" fill-opacity="1"></use></g><g><use xlink:href="#b3iGr14Du1" opacity="1" fill="#b00b0b" fill-opacity="1"></use></g><g><use xlink:href="#bjv305LH4" opacity="1" fill="#b00b0b" fill-opacity="1"></use></g><g><use xlink:href="#b4bPEeaatx" opacity="1" fill="#b00b0b" fill-opacity="1"></use></g><g><use xlink:href="#aH7TkArR7" opacity="1" fill="#b00b0b" fill-opacity="1"></use></g><g><g><use xlink:href="#b2SKx76Vq4" opacity="1" fill-opacity="0" stroke="#ffffff" stroke-width="2" stroke-opacity="1"></use></g></g></g></g></svg>